<svg t="1750949376512" class="icon" viewBox="0 0 1024 1024" version="1.1" xmlns="http://www.w3.org/2000/svg" p-id="6642" width="200" height="200"><path d="M938.456035 455.122739a85.314185 85.314185 0 0 1-85.371061-85.314185c0-12.342119 2.900682-23.944848 7.678277-34.523807l-5.630736-3.241939 28.89307-48.970342 17.972855 10.351454c11.14772-5.346356 23.262334-8.872675 36.457595-8.872675a85.314185 85.314185 0 1 1 0 170.571494z m-56.648618 172.050273l33.898169-166.760793 56.307362 11.204596-33.898169 166.760794-56.307362-11.204597z m39.415153 94.528117l-5.403232 26.333645v0.170629l-0.056876 0.227504-0.056876 0.227505v0.170628l-0.056876 0.056876-0.056876 0.341257-13.138385 64.725028c21.27167 15.527182 36.002586 39.415153 36.002586 67.796339a85.314185 85.314185 0 0 1-85.371061 85.257309c-26.618026 0-49.425351-12.91088-65.066285-32.078133l-17.574722 1.933788-0.73939 0.056876-0.113752 0.056876-0.682513 0.056876h-0.170629l-0.113752 0.056876-108.007758 11.716482-6.31325-56.307362 113.809123-12.398995a84.631672 84.631672 0 0 1 79.114688-82.527255l17.688474-87.077345 56.307362 11.204596z m-289.328839-518.141483l28.89307-49.027219 148.844815 85.712318-28.893071 48.970342-148.844814-85.655441z m-74.39397-42.827721l-19.394758-11.147721c-14.844668 12.683376-33.556913 21.157918-54.657954 21.157918a84.745424 84.745424 0 0 1-30.940612-6.199497l-51.984776 47.605315-39.073897-41.576446 48.458457-44.363376A82.697883 82.697883 0 0 1 398.132864 85.427937a85.314185 85.314185 0 1 1 170.62837 0c0 5.118851-2.04754 9.612065-2.957559 14.446536l20.589157 11.830233-28.893071 49.027219zM172.050273 343.986794l126.264994-115.629159 39.073897 41.576446-126.264994 115.629159-39.073897-41.576446z m-23.489839 173.358424l-16.323447 7.166392a82.982264 82.982264 0 0 1-27.300539 12.000862l-8.8158 3.867576-0.853141-1.933788c-3.412567 0.398133-6.427002 1.990664-9.953322 1.990664a85.314185 85.314185 0 1 1 85.314185-85.314185c0 22.750449-9.213932 43.168978-23.717343 58.468655l1.649407 3.753824z m105.107076 233.13523l-52.439786 23.03483-53.804812-119.269231v-0.170628a8.531419 8.531419 0 0 1-0.682514-1.47878l-0.056876-0.056876-0.455009-1.137522H146.171637l-0.113752-0.284381-0.056876-0.113752-0.625638-1.478779-0.341256-0.682514-0.056877-0.113752-0.113752-0.284381-0.398133-0.796265v-0.113753l-0.227504-0.455009-0.056876-0.113752-0.056876-0.170628-0.056877-0.056876-0.056876-0.113753-0.056876-0.113752-0.056876-0.28438-0.398133-0.796266-12.342119-27.357415 52.439786-23.03483 70.071384 155.442445z m-17.404094 100.727614l52.439786-23.03483 12.342119 27.471168c4.038205-0.568761 7.564524-2.388797 11.773357-2.388797A85.314185 85.314185 0 1 1 227.447617 938.626664c0-22.067936 8.929551-41.690198 22.636697-56.819247l-13.820898-30.599355z m332.440941 50.562874l6.31325 56.364238-171.197131 18.655369-6.31325-56.364239 171.197131-18.655368z" fill="#666666" p-id="6643"></path></svg>