<?xml version="1.0" standalone="no"?><!DOCTYPE svg PUBLIC "-//W3C//DTD SVG 1.1//EN" "http://www.w3.org/Graphics/SVG/1.1/DTD/svg11.dtd"><svg t="1750145799896" class="icon" viewBox="0 0 1024 1024" version="1.1" xmlns="http://www.w3.org/2000/svg" p-id="12318" xmlns:xlink="http://www.w3.org/1999/xlink" width="150" height="150"><path d="M666.026667 741.546667a35.84 35.84 0 0 1-35.84 35.84H387.84a35.84 35.84 0 1 1 0-72.106667h85.333333V391.68H413.013333a35.84 35.84 0 1 1 0-72.106667h96a35.84 35.84 0 0 1 35.84 35.84v350.293334h85.333334a35.84 35.84 0 0 1 35.84 35.84zM509.013333 184.32a35.84 35.84 0 1 1-35.84 35.84 35.84 35.84 0 0 1 35.84-35.84zM512 0a512 512 0 1 0 512 512A512 512 0 0 0 512 0z" fill="#65b87d" p-id="12319"></path></svg>