<svg t="1750837848319" class="icon" viewBox="0 0 1024 1024" version="1.1" xmlns="http://www.w3.org/2000/svg" p-id="12871" width="200" height="200"><path d="M400.94 167.75a365.195 365.195 0 0 0 60.86 105.98 92.885 92.885 0 0 0 65.27 25.02 57.507 57.507 0 0 0 48.1-19.86c22.29-31.02-18.22-107.72-42.24-132.09a137.463 137.463 0 0 0-98.09-53.86c-46.34 0.92-91.26 16.14-128.61 43.58 0 0.01 75.45-11.96 94.71 31.23zM613 195.75l3.03 5.66 5.96 0.89a366.48 366.48 0 0 1 134.52 43.14 230.669 230.669 0 0 1 79.42 71.93 220.893 220.893 0 0 1 35 124.39c0 3.87 0.25 7.4 0.25 10.87 1.57 13.81-1 27.77-7.4 40.11l-3.43 6.85 4.47 6.16c11.96 16.48 21.74 30.08 30.88 42.79l10.82 15.04 9.03-16.38a190.417 190.417 0 0 0 22.09-103.84c4.31-123.51-69.49-236.4-184.36-282a463.078 463.078 0 0 0-159.79-31.07l-25.96-0.99 16.23 20.85a330.762 330.762 0 0 1 29.24 45.6zM667.45 321.13s-26.41-41.45-66.76 0a45.325 45.325 0 0 0-4.85 4.85c-16.25 18.93-14.08 47.45 4.85 63.7l0.1 0.1s323.74 343.45 354.27 343.4c0.62 0.05 1.23-0.17 1.69-0.6 16.67-17.12-289.3-411.45-289.3-411.45zM766.78 623.43l-7.5-7.45-8.14 6.7a473.156 473.156 0 0 1-265.22 114.17 31.765 31.765 0 0 1-27.05-9.13c-10.92-14.94-0.4-53.61 8.93-87.81 13.4-49.64 27.35-100.57 2.83-134.02a90.623 90.623 0 0 0-78.43-29.78c-76.33-0.14-146.93 40.5-185.15 106.57-13.65 18.12-25.46 34.05-36.53 37.97-2.4 0.32-4.82 0.49-7.25 0.5-8.65 0.66-16.98-3.4-21.79-10.62-18.66-28.74 2.78-107.22 9.93-124.69A442.92 442.92 0 0 1 203.93 395a460.127 460.127 0 0 1 172.25-144.45l11.52-5.41-6.01-11.52c-6.5-12.41-12.91-25.66-18.81-38.12l-4.96-10.77-10.57 4.96A568.712 568.712 0 0 0 147.8 353.5a372.663 372.663 0 0 0-78.23 156.26 209.2 209.2 0 0 0 21.25 153.88 73.458 73.458 0 0 0 61.01 29.78c5.07-0.01 10.13-0.39 15.14-1.14a167.792 167.792 0 0 0 100.57-75.2c25.94-45.47 72.66-75.2 124.84-79.42a23.711 23.711 0 0 1 20.25 6.75c9.38 13.01-1.49 50.28-11.07 83.34-14.89 50.48-31.52 107.67-4.96 144.5a102.368 102.368 0 0 0 89.35 33.65 551.684 551.684 0 0 0 316.54-128.17l10.52-8.79-9.93-9.63c-10.69-10.46-22.21-21.88-36.3-35.88z" p-id="12872"></path></svg>