<?xml version="1.0" standalone="no"?><!DOCTYPE svg PUBLIC "-//W3C//DTD SVG 1.1//EN" "http://www.w3.org/Graphics/SVG/1.1/DTD/svg11.dtd"><svg t="1750148609176" class="icon" viewBox="0 0 1024 1024" version="1.1" xmlns="http://www.w3.org/2000/svg" p-id="13332" xmlns:xlink="http://www.w3.org/1999/xlink" width="150" height="150"><path d="M0 512c0 282.624 229.376 512 512 512s512-229.376 512-512S794.624 0 512 0 0 229.376 0 512z" fill="#65b87d" p-id="13333" data-spm-anchor-id="a313x.search_index.0.i6.666f3a81WO8GqD" class="selected"></path><path d="M663.552 525.312l3.584 2.048c13.312 3.584 28.672-3.584 34.304-15.36l34.304-81.408c7.68-15.36 0-32.256-15.36-39.936-15.36-5.632-30.208 0-37.888 13.312v2.048l-3.584 11.264c-37.888-68.096-112.128-108.032-189.44-98.816-51.2 5.632-98.816 30.208-131.072 72.192l-2.048 2.048c-66.56 85.504-53.248 208.384 30.208 278.528 39.936 34.304 91.136 49.152 142.336 43.52 15.36-2.048 26.624-15.36 26.624-30.208v-2.048c-2.048-15.36-15.36-28.672-32.256-26.624-35.84 3.584-72.192-7.68-100.352-30.208-58.88-49.152-68.096-134.656-20.992-195.072l2.048-2.048c22.528-28.672 54.784-45.568 91.136-49.152h1.536c35.84-3.584 72.192 7.68 100.352 30.208 13.312 11.264 22.528 22.528 32.256 37.888l-22.528-11.264c-15.36-7.68-32.256 0-37.888 13.312-7.68 15.36 0 32.256 15.36 39.936l79.36 35.84z" fill="#FFFFFF" p-id="13334"></path></svg>